<?xml version="1.0" standalone="no"?>
<!DOCTYPE svg PUBLIC "-//W3C//DTD SVG 20010904//EN"
 "http://www.w3.org/TR/2001/REC-SVG-20010904/DTD/svg10.dtd">
<svg version="1.0" xmlns="http://www.w3.org/2000/svg"
 width="1920.000000pt" height="1920.000000pt" viewBox="0 0 1920.000000 1920.000000"
 preserveAspectRatio="xMidYMid meet">
<metadata>
Created by potrace 1.11, written by Peter Selinger 2001-2013
</metadata>
<g transform="translate(0.000000,1920.000000) scale(0.100000,-0.100000)"
fill="#000000" stroke="none">
<path d="M9258 19195 c-2 -1 -68 -6 -148 -10 -80 -3 -161 -8 -180 -10 -19 -2
-73 -6 -120 -10 -96 -7 -117 -9 -305 -30 -80 -9 -140 -17 -159 -21 -12 -2 -43
-6 -71 -9 -27 -3 -57 -7 -65 -10 -8 -2 -35 -7 -60 -10 -25 -3 -81 -12 -125
-20 -110 -20 -135 -24 -170 -30 -96 -17 -285 -57 -445 -96 -69 -17 -133 -33
-142 -35 -10 -2 -26 -6 -35 -8 -10 -3 -44 -12 -75 -20 -32 -9 -82 -23 -112
-31 -195 -52 -708 -220 -811 -264 -11 -5 -36 -14 -55 -21 -19 -7 -48 -18 -65
-25 -16 -8 -76 -32 -132 -54 -56 -22 -122 -49 -145 -59 -24 -11 -72 -32 -108
-47 -210 -90 -513 -240 -815 -405 -33 -18 -114 -64 -180 -104 -66 -39 -128
-75 -137 -81 -77 -45 -374 -234 -403 -258 -5 -4 -50 -35 -100 -69 -168 -115
-619 -457 -655 -497 -3 -3 -32 -28 -65 -56 -33 -27 -62 -52 -65 -55 -3 -3 -41
-36 -85 -75 -44 -38 -100 -88 -125 -110 -80 -72 -543 -538 -605 -609 -33 -39
-67 -77 -75 -86 -123 -128 -462 -557 -637 -805 -128 -182 -353 -526 -353 -540
0 -2 -13 -23 -29 -47 -16 -24 -39 -61 -51 -83 -12 -22 -48 -85 -80 -140 -110
-190 -375 -710 -395 -775 -1 -3 -9 -21 -17 -40 -133 -296 -282 -676 -363 -925
-13 -40 -94 -301 -120 -386 -25 -81 -123 -470 -150 -594 -33 -150 -33 -148
-46 -215 -5 -30 -12 -64 -14 -75 -14 -67 -66 -388 -71 -439 -4 -34 -8 -63 -10
-67 -1 -3 -6 -39 -10 -80 -3 -40 -8 -77 -10 -80 -2 -4 -6 -37 -9 -75 -3 -38
-7 -82 -10 -99 -2 -16 -7 -66 -10 -110 -4 -44 -8 -98 -10 -120 -13 -133 -19
-364 -19 -675 0 -358 8 -585 29 -798 3 -28 7 -78 10 -110 5 -50 11 -100 30
-270 3 -24 7 -53 10 -65 2 -12 7 -44 10 -72 6 -52 21 -152 30 -195 2 -13 7
-42 10 -65 3 -22 11 -65 16 -95 6 -30 12 -64 14 -75 2 -11 18 -87 35 -170 18
-82 36 -172 42 -199 49 -250 288 -1045 364 -1213 8 -17 14 -34 14 -38 0 -16
177 -445 236 -573 19 -41 34 -76 34 -78 0 -8 233 -473 285 -569 41 -76 85
-152 235 -410 70 -121 339 -528 352 -533 4 -2 8 -8 8 -13 0 -6 13 -27 28 -47
16 -20 80 -106 143 -191 261 -354 531 -664 868 -1001 246 -245 288 -284 461
-434 69 -60 139 -121 155 -135 192 -169 675 -522 975 -713 30 -19 80 -51 110
-70 95 -61 299 -180 430 -251 30 -16 69 -38 86 -48 36 -22 550 -279 557 -279
3 0 38 -15 79 -34 128 -59 557 -236 573 -236 4 0 21 -6 38 -14 91 -41 539
-187 772 -251 319 -87 710 -177 915 -209 19 -3 46 -8 60 -10 77 -14 221 -36
260 -41 25 -3 56 -7 70 -10 29 -5 111 -16 155 -20 17 -1 62 -6 100 -9 39 -4
80 -9 93 -11 12 -2 62 -7 110 -10 48 -4 103 -9 122 -11 247 -25 1079 -25 1350
1 19 2 72 6 117 10 46 3 91 8 101 10 10 2 54 6 98 9 43 4 90 8 104 11 14 2 43
7 65 9 95 12 137 18 250 36 66 10 140 21 165 25 25 3 52 8 60 10 8 2 31 7 50
10 223 38 709 153 975 231 420 123 868 289 1275 472 19 8 37 16 40 17 11 3
154 71 285 136 465 229 922 502 1350 808 66 47 122 88 125 91 3 3 34 27 70 53
36 27 72 53 80 60 8 7 58 46 110 87 52 41 97 77 100 80 3 3 18 16 34 28 44 34
271 231 376 327 78 71 473 466 550 551 257 280 539 630 757 939 128 182 353
526 353 540 0 2 13 23 29 47 31 46 30 45 164 283 130 232 324 620 412 825 15
36 36 84 47 108 10 23 37 89 59 145 22 56 46 116 54 132 7 17 18 46 25 65 7
19 16 44 21 55 44 103 212 616 264 811 8 30 22 80 31 111 8 32 17 66 20 75 2
10 6 26 8 35 2 10 18 77 36 148 17 72 35 149 41 173 15 66 68 332 73 372 5 33
12 74 22 130 10 61 24 149 29 195 4 28 8 57 10 65 3 8 7 40 10 70 3 30 7 71
10 90 7 53 17 141 20 180 22 252 23 270 32 425 10 180 10 812 0 977 -11 179
-16 245 -22 306 -3 28 -7 78 -10 110 -5 50 -11 100 -30 270 -3 24 -7 53 -10
65 -2 12 -7 45 -10 72 -6 52 -21 152 -30 195 -2 13 -7 42 -10 65 -3 22 -11 65
-16 95 -6 30 -12 62 -13 70 -2 8 -5 29 -9 45 -3 17 -18 86 -32 155 -14 69 -37
172 -51 230 -14 58 -28 115 -30 128 -9 46 -106 391 -145 517 -158 504 -331
938 -567 1425 -87 178 -258 501 -294 552 -10 14 -18 29 -18 32 0 8 -176 296
-257 421 -383 587 -762 1056 -1242 1535 -242 242 -345 337 -536 500 -27 23
-61 52 -75 64 -231 199 -666 518 -982 719 -32 21 -82 52 -110 71 -489 312
-1215 664 -1818 881 -58 20 -114 41 -125 46 -41 16 -364 119 -485 153 -69 20
-138 40 -155 45 -30 10 -375 96 -417 105 -187 40 -412 85 -443 90 -22 3 -51 8
-65 10 -68 12 -220 36 -260 41 -25 3 -56 7 -70 10 -29 5 -110 15 -160 20 -54
5 -140 14 -190 20 -80 9 -143 14 -235 21 -49 4 -112 8 -140 10 -63 5 -862 13
-867 9z"/>
</g>
</svg>
